<svg width="284" height="80" viewBox="0 0 284 80" fill="none" xmlns="http://www.w3.org/2000/svg">
<path d="M17.3779 31.377C21.6962 31.3801 25.6464 29.6144 28.4714 26.7804C31.3023 23.9585 33.0679 20.0083 33.0679 15.69C33.0679 11.3717 31.3023 7.4185 28.4714 4.59352C25.6464 1.7626 21.6962 -0.0030604 17.3779 3.98233e-06C13.0596 -0.0030604 9.10942 1.7626 6.28444 4.59658C3.45352 7.4185 1.68786 11.3717 1.69092 15.69C1.68786 20.0083 3.45352 23.9555 6.28444 26.7804C9.10961 29.6142 13.0598 31.3799 17.3779 31.377ZM12.6616 10.9707C13.8826 9.75566 15.5226 9.01945 17.3779 9.01657C19.2363 9.01964 20.8732 9.75566 22.0972 10.9707C23.3092 12.1917 24.0485 13.8317 24.0485 15.69C24.0485 17.5455 23.3094 19.1823 22.0972 20.4063C20.8732 21.6183 19.2363 22.3576 17.3779 22.3604C15.5224 22.3574 13.8826 21.6183 12.6616 20.4063C11.4466 19.1823 10.7104 17.5453 10.7075 15.69C10.7106 13.8315 11.4468 12.1917 12.6616 10.9707Z" fill="#3F4E65"/>
<path d="M51.7534 31.377C56.0717 31.3801 60.0219 29.6144 62.8468 26.7804C65.6778 23.9555 67.4434 20.0083 67.4404 15.69C67.4434 11.3717 65.6778 7.4185 62.8468 4.59658C60.0219 1.7626 56.0717 -0.0030604 51.7534 3.98233e-06C47.4382 -0.0030604 43.4849 1.7626 40.6599 4.59352C37.8259 7.4185 36.0633 11.3717 36.0664 15.69C36.0633 20.0083 37.829 23.9585 40.6599 26.7804C43.4849 29.6142 47.4382 31.3799 51.7534 31.377ZM47.0371 10.9707C48.2581 9.75566 49.8981 9.01945 51.7534 9.01657C53.6089 9.01964 55.2487 9.75566 56.4697 10.9707C57.6847 12.1917 58.4209 13.8317 58.4238 15.69C58.4207 17.5455 57.6847 19.1823 56.4697 20.4063C55.2487 21.6183 53.6087 22.3576 51.7534 22.3604C49.8979 22.3574 48.2581 21.6183 47.0371 20.4063C45.8221 19.1823 45.0859 17.5453 45.083 15.69C45.0859 13.8315 45.8221 12.1917 47.0371 10.9707Z" fill="#3F4E65"/>
<path d="M59.956 33.9086H8.80111C6.38311 33.9055 4.15971 34.8991 2.57657 36.4851C0.990562 38.0683 0 40.2917 0 42.7097V71.1989C0 73.6169 0.990562 75.8433 2.57657 77.4234C4.15971 79.0094 6.38311 80.0031 8.80111 80H59.956C62.371 80.0031 64.5974 79.0094 66.1775 77.4234C67.7666 75.8433 68.76 73.6169 68.7571 71.1989V42.7097C68.7602 40.2917 67.7666 38.0683 66.1775 36.4851C64.5974 34.8991 62.371 33.9057 59.956 33.9086ZM60.8688 71.1989C60.8629 71.4653 60.77 71.6687 60.5996 71.8453C60.423 72.0159 60.2196 72.1086 59.9562 72.1117H8.80111C8.5347 72.1086 8.33417 72.0159 8.15778 71.8453C7.98713 71.6687 7.89443 71.4653 7.88849 71.1989V42.7097C7.89443 42.4463 7.98732 42.2427 8.15778 42.0633C8.33436 41.8957 8.53489 41.7999 8.80111 41.7969H59.956C60.2194 41.7999 60.423 41.8957 60.5994 42.0633C60.77 42.2429 60.8627 42.4463 60.8687 42.7097L60.8688 71.1989Z" fill="#3F4E65"/>
<path d="M94.5889 36.2488C93.4727 35.5754 92.1889 35.2224 90.926 35.2224C89.7648 35.2224 88.6157 35.5066 87.5535 36.0693L73.4316 43.5987V52.5465L90.172 43.6227V70.3014L73.4316 61.3626V70.3133L87.5535 77.8396C88.6159 78.4052 89.765 78.6865 90.926 78.6865C92.1889 78.6865 93.4727 78.3483 94.601 77.672C96.7436 76.3762 98.0603 74.0539 98.0603 71.5402V42.3686C98.0603 39.8548 96.7436 37.5326 94.5889 36.2488Z" fill="#3F4E65"/>
<path d="M112.199 5.5625H115.676L123.117 28.7461L130.539 5.5625H134.016L124.465 34H121.73L112.199 5.5625ZM111.066 5.5625H114.113L114.641 22.9062V34H111.066V5.5625ZM132.082 5.5625H135.129V34H131.555V22.9062L132.082 5.5625ZM145.051 27.4766L156.125 5.5625H159.719V34H156.125V12.0664L145.051 34H141.477V5.5625H145.051V27.4766ZM175.168 22.8477H168.957V19.7812H175.168C176.34 19.7812 177.284 19.5469 178 19.0781C178.729 18.6094 179.257 17.9583 179.582 17.125C179.921 16.2917 180.09 15.3411 180.09 14.2734C180.09 13.2969 179.921 12.3789 179.582 11.5195C179.257 10.6602 178.729 9.97005 178 9.44922C177.284 8.91536 176.34 8.64844 175.168 8.64844H169.699V34H166.105V5.5625H175.168C177.004 5.5625 178.553 5.93359 179.816 6.67578C181.079 7.41797 182.036 8.44661 182.688 9.76172C183.352 11.0638 183.684 12.5547 183.684 14.2344C183.684 16.0573 183.352 17.6133 182.688 18.9023C182.036 20.1914 181.079 21.1745 179.816 21.8516C178.553 22.5156 177.004 22.8477 175.168 22.8477ZM119.445 48.3945H123.801C125.142 48.3945 126.398 48.6745 127.57 49.2344C128.742 49.7812 129.771 50.5625 130.656 51.5781C131.542 52.5938 132.232 53.8047 132.727 55.2109C133.221 56.6042 133.469 58.1471 133.469 59.8398C133.469 61.5326 133.221 63.082 132.727 64.4883C132.232 65.8945 131.542 67.112 130.656 68.1406C129.771 69.1562 128.742 69.944 127.57 70.5039C126.398 71.0508 125.142 71.3242 123.801 71.3242H119.445C118.104 71.3242 116.848 71.0508 115.676 70.5039C114.517 69.944 113.495 69.1562 112.609 68.1406C111.724 67.125 111.034 65.9206 110.539 64.5273C110.044 63.1211 109.797 61.5716 109.797 59.8789C109.797 58.1862 110.044 56.6432 110.539 55.25C111.034 53.8438 111.724 52.6328 112.609 51.6172C113.495 50.5885 114.517 49.7943 115.676 49.2344C116.848 48.6745 118.104 48.3945 119.445 48.3945ZM119.445 51.3633C118.104 51.3633 116.965 51.7214 116.027 52.4375C115.103 53.1406 114.4 54.1302 113.918 55.4062C113.449 56.6823 113.215 58.1732 113.215 59.8789C113.215 61.168 113.345 62.3333 113.605 63.375C113.879 64.4167 114.276 65.3086 114.797 66.0508C115.331 66.793 115.982 67.3659 116.75 67.7695C117.531 68.1732 118.43 68.375 119.445 68.375H123.84C125.181 68.375 126.307 68.0234 127.219 67.3203C128.143 66.6042 128.846 65.6081 129.328 64.332C129.81 63.043 130.051 61.5456 130.051 59.8398C130.051 58.5638 129.914 57.4049 129.641 56.3633C129.367 55.3216 128.964 54.4297 128.43 53.6875C127.909 52.9453 127.264 52.3724 126.496 51.9688C125.728 51.5651 124.842 51.3633 123.84 51.3633H119.445ZM123.371 44.3906V75.1719H119.934V44.3906H123.371ZM141.926 67.4766L153 45.5625H156.594V74H153V52.0664L141.926 74H138.352V45.5625H141.926V67.4766ZM178.469 45.5625V48.6484H167.844V45.5625H178.469ZM181.633 45.5625V74H178.039V45.5625H181.633ZM166.633 45.5625H170.207L169.699 59.4883C169.634 61.4935 169.51 63.2839 169.328 64.8594C169.146 66.4219 168.885 67.7826 168.547 68.9414C168.208 70.0872 167.766 71.0378 167.219 71.793C166.672 72.5352 166.001 73.0885 165.207 73.4531C164.426 73.8177 163.495 74 162.414 74H161.477V70.9336L162.16 70.875C162.759 70.8229 163.273 70.6602 163.703 70.3867C164.146 70.1003 164.51 69.6706 164.797 69.0977C165.096 68.5247 165.337 67.7826 165.52 66.8711C165.715 65.9596 165.865 64.8464 165.969 63.5312C166.073 62.2031 166.151 60.6536 166.203 58.8828L166.633 45.5625ZM190.715 57.1445H197.18C198.938 57.1445 200.422 57.4961 201.633 58.1992C202.857 58.8893 203.781 59.8594 204.406 61.1094C205.044 62.3594 205.363 63.8242 205.363 65.5039C205.363 66.7539 205.181 67.8997 204.816 68.9414C204.465 69.9701 203.938 70.8685 203.234 71.6367C202.544 72.3919 201.691 72.9779 200.676 73.3945C199.66 73.7982 198.495 74 197.18 74H187.883V45.5625H191.477V70.9336H197.18C198.273 70.9336 199.152 70.6797 199.816 70.1719C200.493 69.651 200.988 68.974 201.301 68.1406C201.613 67.3073 201.77 66.4154 201.77 65.4648C201.77 64.5143 201.613 63.6419 201.301 62.8477C200.988 62.0534 200.493 61.4219 199.816 60.9531C199.152 60.4714 198.273 60.2305 197.18 60.2305H190.715V57.1445ZM211.184 45.5625H214.66L222.102 68.7461L229.523 45.5625H233L223.449 74H220.715L211.184 45.5625ZM210.051 45.5625H213.098L213.625 62.9062V74H210.051V45.5625ZM231.066 45.5625H234.113V74H230.539V62.9062L231.066 45.5625ZM258.781 57.3203V62.2617C258.781 64.2669 258.56 66.0312 258.117 67.5547C257.688 69.0651 257.056 70.3281 256.223 71.3438C255.389 72.3594 254.387 73.1211 253.215 73.6289C252.043 74.1367 250.721 74.3906 249.25 74.3906C247.831 74.3906 246.535 74.1367 245.363 73.6289C244.191 73.1211 243.182 72.3594 242.336 71.3438C241.49 70.3281 240.832 69.0651 240.363 67.5547C239.908 66.0312 239.68 64.2669 239.68 62.2617V57.3203C239.68 55.3151 239.908 53.5573 240.363 52.0469C240.819 50.5234 241.47 49.2539 242.316 48.2383C243.163 47.2227 244.172 46.4609 245.344 45.9531C246.516 45.4323 247.811 45.1719 249.23 45.1719C250.702 45.1719 252.023 45.4323 253.195 45.9531C254.38 46.4609 255.383 47.2227 256.203 48.2383C257.036 49.2539 257.674 50.5234 258.117 52.0469C258.56 53.5573 258.781 55.3151 258.781 57.3203ZM255.227 62.2617V57.2812C255.227 55.7188 255.096 54.3776 254.836 53.2578C254.576 52.125 254.191 51.2005 253.684 50.4844C253.176 49.7682 252.551 49.2409 251.809 48.9023C251.066 48.5508 250.207 48.375 249.23 48.375C248.306 48.375 247.473 48.5508 246.73 48.9023C246.001 49.2409 245.376 49.7682 244.855 50.4844C244.335 51.2005 243.931 52.125 243.645 53.2578C243.371 54.3776 243.234 55.7188 243.234 57.2812V62.2617C243.234 63.8372 243.371 65.1914 243.645 66.3242C243.931 67.444 244.335 68.3685 244.855 69.0977C245.389 69.8138 246.027 70.3477 246.77 70.6992C247.512 71.0378 248.339 71.207 249.25 71.207C250.227 71.207 251.086 71.0378 251.828 70.6992C252.583 70.3477 253.208 69.8138 253.703 69.0977C254.211 68.3685 254.589 67.444 254.836 66.3242C255.096 65.1914 255.227 63.8372 255.227 62.2617ZM272.961 60.6992H267.18L267.141 57.6719H272.512C273.319 57.6719 274.035 57.4896 274.66 57.125C275.285 56.7604 275.773 56.2396 276.125 55.5625C276.49 54.8724 276.672 54.0521 276.672 53.1016C276.672 52.0599 276.516 51.2135 276.203 50.5625C275.904 49.8984 275.441 49.4167 274.816 49.1172C274.204 48.8047 273.423 48.6484 272.473 48.6484H267.941V74H264.348V45.5625H272.473C273.697 45.5625 274.79 45.7122 275.754 46.0117C276.717 46.2982 277.531 46.7539 278.195 47.3789C278.872 47.9909 279.387 48.7721 279.738 49.7227C280.09 50.6732 280.266 51.8125 280.266 53.1406C280.266 54.3125 279.999 55.3737 279.465 56.3242C278.944 57.2617 278.215 58.0299 277.277 58.6289C276.34 59.2279 275.259 59.612 274.035 59.7812L272.961 60.6992ZM272.824 74H265.695L267.785 70.9336H272.824C273.762 70.9336 274.556 70.7253 275.207 70.3086C275.858 69.8919 276.353 69.306 276.691 68.5508C277.043 67.7826 277.219 66.8776 277.219 65.8359C277.219 64.7812 277.076 63.8698 276.789 63.1016C276.503 62.3333 276.047 61.7409 275.422 61.3242C274.797 60.9076 273.977 60.6992 272.961 60.6992H268.332L268.371 57.6719H274.621L275.422 58.7656C276.594 58.8828 277.577 59.2734 278.371 59.9375C279.178 60.5885 279.784 61.4219 280.188 62.4375C280.604 63.4531 280.812 64.5729 280.812 65.7969C280.812 67.5677 280.48 69.0651 279.816 70.2891C279.165 71.5 278.241 72.4245 277.043 73.0625C275.845 73.6875 274.439 74 272.824 74Z" fill="#3F4E65"/>
</svg>
